# File created by Blade
# Date/Time:  Tue Jan 27 17:27:32 2015
# Frame Rate: 120.000 fps
#------------------------------------------------------
:FULLY-SPECIFIED
:DEGREES
1382
root 0.706909 36.930176 -0.413494 7.058855 11.786031 0.144451
Spine 1.834343 11.619677 -4.060520
Head 0.592119 -8.794970 0.919732
LeftShoulder -4.787925 -8.472737 7.813887
LeftArm -10.240070 -31.684482 -45.960910
LeftForeArm 3.778977 -0.000000 104.156776
LeftHand -10.963883 -0.000000 32.335908
LeftHandThumb1 -26.253704 0.000000 33.147579
RightShoulder -3.897889 -19.546713 2.225084
RightArm 28.524605 -33.749527 49.965696
RightForeArm 181.346470 -0.000000 30.314768
RightHand 1.080932 -0.000000 -0.971172
RightHandThumb1 -24.326973 -0.000000 -32.862282
LeftUpLeg -12.578035 0.944496 0.966856
LeftLeg 16.676562 -0.000000 -0.000000
LeftFoot -18.006237 1.367270 -15.939399
LeftToeBase 12.742686 -0.000000 -0.000000
RightUpLeg -6.841129 -10.183980 -1.261012
RightLeg 12.577969 -0.000000 -0.000000
RightFoot -16.502087 -3.312332 6.728407
RightToeBase 4.565251 -0.000000 -0.000000
1383
root 0.688035 36.930038 -0.411223 7.035124 11.929720 0.134965
Spine 1.935838 11.640209 -3.914663
Head 0.554258 -8.824304 0.876149
LeftShoulder -4.707042 -8.557596 7.811424
LeftArm -10.088284 -31.445375 -46.153563
LeftForeArm 3.842780 -0.000000 104.127879
LeftHand -11.054827 -0.000000 32.477342
LeftHandThumb1 -26.253704 0.000000 33.147579
RightShoulder -3.853399 -19.581839 2.200772
RightArm 28.319910 -33.534520 49.936407
RightForeArm 181.801161 -0.000000 30.286908
RightHand 1.156592 -0.000000 -0.744472
RightHandThumb1 -24.326973 -0.000000 -32.862282
LeftUpLeg -12.858544 1.330517 0.870293
LeftLeg 17.223433 -0.000000 -0.000000
LeftFoot -18.105963 1.465141 -15.807728
LeftToeBase 12.730354 -0.000000 -0.000000
RightUpLeg -6.698134 -10.252967 -1.218764
RightLeg 12.358032 -0.000000 -0.000000
RightFoot -16.466635 -3.339628 6.755755
RightToeBase 4.608405 -0.000000 -0.000000
1384
root 0.676781 36.929765 -0.408867 7.001844 12.122460 0.159070
Spine 2.068629 11.595179 -3.780372
Head 0.490336 -8.865064 0.824086
LeftShoulder -4.717743 -8.633015 7.822810
LeftArm -9.840366 -31.200012 -46.460584
LeftForeArm 4.053370 0.000000 104.084832
LeftHand -11.038544 -0.000000 32.422031
LeftHandThumb1 -26.253704 0.000000 33.147579
RightShoulder -3.828193 -19.596338 2.163549
RightArm 28.152686 -33.297572 49.958747
RightForeArm 182.156095 -0.000000 30.163021
RightHand 1.047094 -0.000000 -0.645213
RightHandThumb1 -24.326973 -0.000000 -32.862282
LeftUpLeg -13.107602 1.701262 0.720782
LeftLeg 17.716223 -0.000000 -0.000000
LeftFoot -18.159030 1.573235 -15.639779
LeftToeBase 12.658062 -0.000000 -0.000000
RightUpLeg -6.572498 -10.444834 -1.209553
RightLeg 12.222536 -0.000000 -0.000000
RightFoot -16.453194 -3.371874 6.689791
RightToeBase 4.652739 -0.000000 -0.000000
1385
root 0.670411 36.930177 -0.406613 6.983910 12.300225 0.198277
Spine 2.168353 11.579112 -3.667320
Head 0.465785 -8.924479 0.789821
LeftShoulder -4.649702 -8.702988 7.822498
LeftArm -9.685728 -30.960948 -46.679904
LeftForeArm 4.163779 -0.000000 104.080620
LeftHand -11.206836 0.000000 32.618677
LeftHandThumb1 -26.253704 0.000000 33.147579
RightShoulder -3.797904 -19.625824 2.132148
RightArm 27.957369 -33.077354 49.974911
RightForeArm 182.569861 0.000000 30.088545
RightHand 1.174401 0.000000 -0.461312
RightHandThumb1 -24.326973 -0.000000 -32.862282
LeftUpLeg -13.336092 2.148115 0.528484
LeftLeg 18.127205 -0.000000 -0.000000
LeftFoot -18.199702 1.687236 -15.481506
LeftToeBase 12.737494 -0.000000 -0.000000
RightUpLeg -6.460657 -10.594224 -1.227390
RightLeg 12.094222 -0.000000 -0.000000
RightFoot -16.444775 -3.394661 6.653023
RightToeBase 4.707690 -0.000000 -0.000000
1386
root 0.668465 36.929967 -0.401914 6.969687 12.438280 0.232032
Spine 2.240256 11.614540 -3.562838
Head 0.446325 -8.985266 0.770697
LeftShoulder -4.576022 -8.738762 7.822902
LeftArm -9.517461 -30.740613 -46.939243
LeftForeArm 4.288856 -0.000000 104.083857
LeftHand -11.106842 -0.000000 32.621845
LeftHandThumb1 -26.253704 0.000000 33.147579
RightShoulder -3.804556 -19.646448 2.104919
RightArm 27.778570 -32.862014 50.019404
RightForeArm 183.016753 -0.000000 29.932914
RightHand 1.105636 -0.000000 -0.373029
RightHandThumb1 -24.326973 -0.000000 -32.862282
LeftUpLeg -13.529042 2.736009 0.313873
LeftLeg 18.464345 -0.000000 -0.000000
LeftFoot -18.146805 1.849371 -14.977964
LeftToeBase 12.447688 -0.000000 -0.000000
RightUpLeg -6.365183 -10.705540 -1.249527
RightLeg 11.992820 -0.000000 -0.000000
RightFoot -16.445962 -3.410504 6.656422
RightToeBase 4.672021 -0.000000 -0.000000
1387
root 0.670246 36.931446 -0.394005 6.936899 12.607741 0.277778
Spine 2.307699 11.598657 -3.463242
Head 0.518602 -9.023005 0.754981
LeftShoulder -4.511147 -8.722631 7.809503
LeftArm -9.315723 -30.538578 -47.190085
LeftForeArm 4.406996 0.000000 104.090717
LeftHand -11.195411 -0.000000 32.623977
LeftHandThumb1 -26.253704 0.000000 33.147579
RightShoulder -3.742129 -19.649982 2.067930
RightArm 27.504760 -32.621231 50.141789
RightForeArm 183.336294 -0.000000 29.808141
RightHand 1.168120 -0.000000 -0.314039
RightHandThumb1 -24.326973 -0.000000 -32.862282
LeftUpLeg -13.661707 3.288430 0.092534
LeftLeg 18.700947 -0.000000 -0.000000
LeftFoot -18.150950 1.920456 -15.113700
LeftToeBase 12.584091 -0.000000 -0.000000
RightUpLeg -6.238404 -10.841394 -1.291634
RightLeg 11.888484 -0.000000 -0.000000
RightFoot -16.441634 -3.417038 6.683521
RightToeBase 4.698152 -0.000000 -0.000000
1388
root 0.675805 36.933183 -0.383750 6.912261 12.727436 0.332357
Spine 2.367122 11.616179 -3.404027
Head 0.546106 -9.048346 0.799099
LeftShoulder -4.467556 -8.761030 7.820084
LeftArm -9.193906 -30.267373 -47.374226
LeftForeArm 4.517829 0.000000 104.142261
LeftHand -11.307306 -0.000000 32.743881
LeftHandThumb1 -26.253704 0.000000 33.147579
RightShoulder -3.723405 -19.649904 2.064003
RightArm 27.328677 -32.466262 50.166356
RightForeArm 183.618029 -0.000000 29.656173
RightHand 1.264307 -0.000000 -0.127089
RightHandThumb1 -24.326973 -0.000000 -32.862282
LeftUpLeg -13.730814 3.849147 -0.133066
LeftLeg 18.821631 -0.000000 -0.000000
LeftFoot -18.113880 1.998216 -15.030570
LeftToeBase 12.607810 -0.000000 -0.000000
RightUpLeg -6.140638 -10.907158 -1.352583
RightLeg 11.833526 -0.000000 -0.000000
RightFoot -16.442353 -3.454224 6.682639
RightToeBase 4.653709 -0.000000 -0.000000
1389
root 0.684684 36.933892 -0.370948 6.881680 12.872646 0.385823
Spine 2.403961 11.605266 -3.339618
Head 0.623968 -9.082551 0.827684
LeftShoulder -4.404214 -8.775149 7.821128
LeftArm -9.093461 -29.993098 -47.531216
LeftForeArm 4.577040 -0.000000 104.193303
LeftHand -11.327658 -0.000000 32.742988
LeftHandThumb1 -26.253704 0.000000 33.147579
RightShoulder -3.712396 -19.659187 2.030398
RightArm 27.191150 -32.335404 50.224047
RightForeArm 183.895535 -0.000000 29.426927
RightHand 1.268852 -0.000000 -0.077673
RightHandThumb1 -24.326973 -0.000000 -32.862282
LeftUpLeg -13.734497 4.276112 -0.341062
LeftLeg 18.830508 -0.000000 -0.000000
LeftFoot -18.091599 2.194792 -14.942744
LeftToeBase 12.551786 -0.000000 -0.000000
RightUpLeg -6.038866 -10.972790 -1.416048
RightLeg 11.801626 -0.000000 -0.000000
RightFoot -16.479706 -3.498106 6.745696
RightToeBase 4.702303 -0.000000 -0.000000
1390
root 0.699889 36.934911 -0.356576 6.857666 13.004785 0.467170
Spine 2.424743 11.568744 -3.324045
Head 0.718871 -9.034937 0.916870
LeftShoulder -4.395515 -8.772304 7.855115
LeftArm -8.977699 -29.716398 -47.720282
LeftForeArm 4.673429 -0.000000 104.246639
LeftHand -11.406582 -0.000000 32.715513
LeftHandThumb1 -26.253704 0.000000 33.147579
RightShoulder -3.672687 -19.666230 2.015494
RightArm 27.028719 -32.192119 50.294546
RightForeArm 184.203900 0.000000 29.220969
RightHand 1.268975 0.000000 -0.053700
RightHandThumb1 -24.326973 -0.000000 -32.862282
LeftUpLeg -13.703534 4.641267 -0.561658
LeftLeg 18.793702 -0.000000 -0.000000
LeftFoot -18.059248 2.349612 -14.840672
LeftToeBase 12.597056 -0.000000 -0.000000
RightUpLeg -5.938217 -10.822907 -1.523448
RightLeg 11.792325 -0.000000 -0.000000
RightFoot -16.547605 -3.709893 6.921715
RightToeBase 4.703656 -0.000000 -0.000000
